<svg width="100%"
    height="100%" viewBox="0 0 16 32" version="1.1" xmlns="http://www.w3.org/2000/svg"
    xmlns:xlink="http://www.w3.org/1999/xlink" xml:space="preserve" xmlns:serif="http://www.serif.com/"
    style="fill-rule:evenodd;clip-rule:evenodd;stroke-linejoin:round;stroke-miterlimit:2;">
    <path
        d="M15.77,9.825l-7.659,-9.825l-5.999,8.627c-0,-0 2.331,4.394 3.4,5.282c0.772,0.642 2.354,0.36 3.012,0.048c1.91,-0.905 2.043,-5.309 1.359,-6.468c-0.388,-0.656 -2.31,0.121 -2.859,1.467c-0.586,1.433 1.966,2.043 2.041,2.291c0.411,1.362 -3.016,0.845 -3.461,-2.035c-0.159,-1.026 2.09,-3.543 2.964,-3.775c0.875,-0.231 2.289,1.164 2.501,2.269c0.29,1.513 -0.066,5.073 -1.079,6.432c-0.985,1.32 -2.357,1.53 -3.833,1.398c-1.685,-0.151 -4.742,-5.908 -4.742,-5.908l-1.415,2.035l2.526,15.523l5.629,4.814l2.228,-1.723c-0,-0 -4.263,-5.068 -4.636,-6.963c-0.279,-1.419 1.588,-3.886 2.777,-4.119c1.189,-0.233 2.743,0.392 3.359,1.434c0.617,1.042 0.279,3.128 -0.312,3.695c-0.592,0.567 -2.811,0.897 -2.944,-0.367c-0.06,-0.565 3.162,1.119 2.705,-2.338c-0.068,-0.514 -1.958,-1.801 -2.695,-1.533c-0.737,0.267 -2.274,2.387 -1.91,3.336c0.549,1.429 4.836,5.941 4.836,5.941l3.057,-2.364l1.15,-17.174Z"
        style="fill:#ad433e;" /></svg>