<svg viewBox="0 0 32 32" style="fill-rule:evenodd;clip-rule:evenodd;stroke-linejoin:round;stroke-miterlimit:2;"><path d="M27.667,18.521c-1.159,5.378 -5.945,9.413 -11.667,9.413c-5.722,-0 -10.508,-4.035 -11.667,-9.413l3.077,-0c1.09,3.714 4.525,6.429 8.59,6.429c4.065,0 7.5,-2.715 8.59,-6.429l3.077,-0Z" style="fill:#fff;"/><path d="M4.333,13.479c1.159,-5.378 5.945,-9.413 11.667,-9.413c5.722,0 10.508,4.035 11.667,9.413l-3.077,0c-1.09,-3.714 -4.525,-6.429 -8.59,-6.429c-4.065,-0 -7.5,2.715 -8.59,6.429l-3.077,0Z" style="fill:#fff;"/><path d="M9.696,18.195l-4.696,-2.195l-2.194,4.696l6.89,-2.501Z" style="fill:#fff;"/><path d="M22.363,13.805l4.697,2.195l2.194,-4.696l-6.891,2.501Z" style="fill:#fff;"/></svg>